Kedebideri-Regular.ufo
<glyph name="quotedbl" format="2">
  <advance width="437"/>
  <unicode hex="0022"/>
  <note>
quotedbl
</note>
  <outline>
    <contour>
      <point x="96" y="764" type="line"/>
      <point x="114" y="471" type="line"/>
      <point x="166" y="471" type="line"/>
      <point x="184" y="764" type="line"/>
    </contour>
    <contour>
      <point x="253" y="764" type="line"/>
      <point x="271" y="471" type="line"/>
      <point x="323" y="471" type="line"/>
      <point x="341" y="764" type="line"/>
    </contour>
  </outline>
</glyph>
<glyph name="quotesingle" format="2">
  <advance width="284"/>
  <unicode hex="0027"/>
  <note>
quotesingle
</note>
  <outline>
    <contour>
      <point x="96" y="764" type="line"/>
      <point x="116" y="471" type="line"/>
      <point x="168" y="471" type="line"/>
      <point x="188" y="764" type="line"/>
    </contour>
  </outline>
</glyph>
<glyph name="question" format="2">
  <advance width="644"/>
  <unicode hex="003F"/>
  <note>
question
</note>
  <outline>
    <contour>
      <point x="241" y="363" type="line"/>
      <point x="241" y="213" type="line"/>
      <point x="307" y="213" type="line"/>
      <point x="307" y="299" type="line"/>
      <point x="465" y="302"/>
      <point x="575" y="344"/>
      <point x="575" y="491" type="curve" smooth="yes"/>
      <point x="575" y="631"/>
      <point x="476" y="699"/>
      <point x="316" y="699" type="curve" smooth="yes"/>
      <point x="222" y="699"/>
      <point x="134" y="673"/>
      <point x="57" y="616" type="curve"/>
      <point x="96" y="562" type="line"/>
      <point x="157" y="608"/>
      <point x="238" y="636"/>
      <point x="316" y="636" type="curve" smooth="yes"/>
      <point x="432" y="636"/>
      <point x="505" y="599"/>
      <point x="505" y="495" type="curve" smooth="yes"/>
      <point x="505" y="390"/>
      <point x="437" y="363"/>
      <point x="303" y="363" type="curve" smooth="yes"/>
    </contour>
    <contour>
      <point x="224" y="103" type="line"/>
      <point x="224" y="0" type="line"/>
      <point x="320" y="0" type="line"/>
      <point x="320" y="103" type="line"/>
    </contour>
  </outline>
</glyph>
<glyph name="E" format="2">
  <advance width="539"/>
  <unicode hex="0045"/>
  <anchor x="293" y="702" name="aboveUC"/>
  <outline>
    <contour>
      <point x="95" y="0" type="line"/>
      <point x="489" y="0" type="line"/>
      <point x="489" y="60" type="line"/>
      <point x="166" y="60" type="line"/>
      <point x="166" y="328" type="line"/>
      <point x="429" y="328" type="line"/>
      <point x="429" y="388" type="line"/>
      <point x="166" y="388" type="line"/>
      <point x="166" y="619" type="line"/>
      <point x="479" y="619" type="line"/>
      <point x="479" y="679" type="line"/>
      <point x="95" y="679" type="line"/>
    </contour>
  </outline>
</glyph>
<glyph name="F" format="2">
  <advance width="503"/>
  <unicode hex="0046"/>
  <anchor x="295" y="702" name="aboveUC"/>
  <outline>
    <contour>
      <point x="95" y="0" type="line"/>
      <point x="166" y="0" type="line"/>
      <point x="166" y="313" type="line"/>
      <point x="431" y="313" type="line"/>
      <point x="431" y="373" type="line"/>
      <point x="166" y="373" type="line"/>
      <point x="166" y="619" type="line"/>
      <point x="478" y="619" type="line"/>
      <point x="478" y="679" type="line"/>
      <point x="95" y="679" type="line"/>
    </contour>
  </outline>
</glyph>
<glyph name="G" format="2">
  <advance width="632"/>
  <unicode hex="0047"/>
  <anchor x="361" y="702" name="aboveUC"/>
  <outline>
    <contour>
      <point x="355" y="-12" type="curve" smooth="yes"/>
      <point x="445" y="-12"/>
      <point x="518" y="20"/>
      <point x="561" y="65" type="curve"/>
      <point x="561" y="344" type="line"/>
      <point x="344" y="344" type="line"/>
      <point x="344" y="285" type="line"/>
      <point x="495" y="285" type="line"/>
      <point x="495" y="94" type="line"/>
      <point x="466" y="66"/>
      <point x="415" y="50"/>
      <point x="361" y="50" type="curve" smooth="yes"/>
      <point x="212" y="50"/>
      <point x="128" y="163"/>
      <point x="128" y="341" type="curve" smooth="yes"/>
      <point x="128" y="518"/>
      <point x="219" y="628"/>
      <point x="363" y="628" type="curve" smooth="yes"/>
      <point x="434" y="628"/>
      <point x="479" y="599"/>
      <point x="513" y="562" type="curve"/>
      <point x="553" y="608" type="line"/>
      <point x="515" y="648"/>
      <point x="455" y="691"/>
      <point x="361" y="691" type="curve" smooth="yes"/>
      <point x="182" y="691"/>
      <point x="54" y="557"/>
      <point x="54" y="339" type="curve" smooth="yes"/>
      <point x="54" y="121"/>
      <point x="178" y="-12"/>
    </contour>
  </outline>
</glyph>
<glyph name="I" format="2">
  <advance width="262"/>
  <unicode hex="0049"/>
  <anchor x="131" y="702" name="aboveUC"/>
  <outline>
    <contour>
      <point x="95" y="0" type="line"/>
      <point x="166" y="0" type="line"/>
      <point x="166" y="679" type="line"/>
      <point x="95" y="679" type="line"/>
    </contour>
  </outline>
</glyph>
<glyph name="P" format="2">
  <advance width="577"/>
  <unicode hex="0050"/>
  <anchor x="309" y="702" name="aboveUC"/>
  <outline>
    <contour>
      <point x="95" y="0" type="line"/>
      <point x="166" y="0" type="line"/>
      <point x="166" y="278" type="line"/>
      <point x="284" y="278" type="line" smooth="yes"/>
      <point x="434" y="278"/>
      <point x="532" y="344"/>
      <point x="532" y="483" type="curve" smooth="yes"/>
      <point x="532" y="628"/>
      <point x="433" y="679"/>
      <point x="280" y="679" type="curve" smooth="yes"/>
      <point x="95" y="679" type="line"/>
    </contour>
    <contour>
      <point x="166" y="336" type="line"/>
      <point x="166" y="621" type="line"/>
      <point x="269" y="621" type="line" smooth="yes"/>
      <point x="397" y="621"/>
      <point x="460" y="587"/>
      <point x="460" y="483" type="curve" smooth="yes"/>
      <point x="460" y="380"/>
      <point x="400" y="336"/>
      <point x="273" y="336" type="curve" smooth="yes"/>
    </contour>
  </outline>
</glyph>
<glyph name="W" format="2">
  <advance width="805"/>
  <unicode hex="0057"/>
  <anchor x="402" y="702" name="aboveUC"/>
  <outline>
    <contour>
      <point x="173" y="0" type="line"/>
      <point x="256" y="0" type="line"/>
      <point x="365" y="431" type="line"/>
      <point x="377" y="484"/>
      <point x="389" y="532"/>
      <point x="400" y="585" type="curve"/>
      <point x="404" y="585" type="line"/>
      <point x="415" y="532"/>
      <point x="426" y="484"/>
      <point x="438" y="431" type="curve"/>
      <point x="550" y="0" type="line"/>
      <point x="633" y="0" type="line"/>
      <point x="778" y="679" type="line"/>
      <point x="709" y="679" type="line"/>
      <point x="632" y="297" type="line"/>
      <point x="618" y="224"/>
      <point x="605" y="150"/>
      <point x="591" y="77" type="curve"/>
      <point x="587" y="77" type="line"/>
      <point x="570" y="150"/>
      <point x="553" y="224"/>
      <point x="536" y="297" type="curve"/>
      <point x="437" y="679" type="line"/>
      <point x="371" y="679" type="line"/>
      <point x="272" y="297" type="line"/>
      <point x="255" y="224"/>
      <point x="238" y="150"/>
      <point x="222" y="77" type="curve"/>
      <point x="218" y="77" type="line"/>
      <point x="204" y="150"/>
      <point x="190" y="223"/>
      <point x="175" y="297" type="curve"/>
      <point x="99" y="679" type="line"/>
      <point x="25" y="679" type="line"/>
    </contour>
  </outline>
</glyph>
<glyph name="j" format="2">
  <advance width="247"/>
  <unicode hex="006A"/>
  <anchor x="125" y="710" name="aboveLC"/>
  <outline>
    <contour>
      <point x="31" y="-229" type="curve" smooth="yes"/>
      <point x="122" y="-229"/>
      <point x="158" y="-171"/>
      <point x="158" y="-70" type="curve" smooth="yes"/>
      <point x="158" y="499" type="line"/>
      <point x="89" y="499" type="line"/>
      <point x="89" y="-69" type="line" smooth="yes"/>
      <point x="89" y="-131"/>
      <point x="78" y="-171"/>
      <point x="25" y="-171" type="curve" smooth="yes"/>
      <point x="7" y="-171"/>
      <point x="-10" y="-166"/>
      <point x="-23" y="-162" type="curve"/>
      <point x="-38" y="-216" type="line"/>
      <point x="-21" y="-223"/>
      <point x="3" y="-229"/>
    </contour>
    <contour>
      <point x="124" y="609" type="curve" smooth="yes"/>
      <point x="153" y="609"/>
      <point x="176" y="630"/>
      <point x="176" y="658" type="curve" smooth="yes"/>
      <point x="176" y="689"/>
      <point x="153" y="708"/>
      <point x="124" y="708" type="curve" smooth="yes"/>
      <point x="96" y="708"/>
      <point x="73" y="689"/>
      <point x="73" y="658" type="curve" smooth="yes"/>
      <point x="73" y="630"/>
      <point x="96" y="609"/>
    </contour>
  </outline>
</glyph>
<glyph name="q" format="2">
  <advance width="568"/>
  <unicode hex="0071"/>
  <anchor x="283" y="524" name="aboveLC"/>
  <outline>
    <contour>
      <point x="410" y="-217" type="line"/>
      <point x="479" y="-217" type="line"/>
      <point x="479" y="499" type="line"/>
      <point x="423" y="499" type="line"/>
      <point x="417" y="452" type="line"/>
      <point x="414" y="452" type="line"/>
      <point x="369" y="490"/>
      <point x="327" y="512"/>
      <point x="269" y="512" type="curve" smooth="yes"/>
      <point x="153" y="512"/>
      <point x="50" y="410"/>
      <point x="50" y="249" type="curve" smooth="yes"/>
      <point x="50" y="81"/>
      <point x="132" y="-12"/>
      <point x="257" y="-12" type="curve" smooth="yes"/>
      <point x="318" y="-12"/>
      <point x="372" y="20"/>
      <point x="413" y="60" type="curve"/>
      <point x="410" y="-33" type="line"/>
    </contour>
    <contour>
      <point x="271" y="46" type="curve" smooth="yes"/>
      <point x="176" y="46"/>
      <point x="122" y="124"/>
      <point x="122" y="249" type="curve" smooth="yes"/>
      <point x="122" y="368"/>
      <point x="191" y="453"/>
      <point x="279" y="453" type="curve" smooth="yes"/>
      <point x="323" y="453"/>
      <point x="363" y="437"/>
      <point x="410" y="396" type="curve"/>
      <point x="410" y="120" type="line"/>
      <point x="364" y="71"/>
      <point x="320" y="46"/>
    </contour>
  </outline>
</glyph>
<glyph name="y" format="2">
  <advance width="469"/>
  <unicode hex="0079"/>
  <anchor x="245" y="524" name="aboveLC"/>
  <outline>
    <contour>
      <point x="85" y="-220" type="curve" smooth="yes"/>
      <point x="182" y="-220"/>
      <point x="233" y="-142"/>
      <point x="265" y="-49" type="curve"/>
      <point x="457" y="499" type="line"/>
      <point x="388" y="499" type="line"/>
      <point x="292" y="208" type="line" smooth="yes"/>
      <point x="278" y="164"/>
      <point x="264" y="112"/>
      <point x="249" y="67" type="curve"/>
      <point x="245" y="67" type="line"/>
      <point x="228" y="113"/>
      <point x="210" y="165"/>
      <point x="194" y="208" type="curve" smooth="yes"/>
      <point x="84" y="499" type="line"/>
      <point x="12" y="499" type="line"/>
      <point x="214" y="-4" type="line"/>
      <point x="202" y="-43" type="line" smooth="yes"/>
      <point x="179" y="-111"/>
      <point x="141" y="-161"/>
      <point x="83" y="-161" type="curve" smooth="yes"/>
      <point x="70" y="-161"/>
      <point x="54" y="-157"/>
      <point x="44" y="-153" type="curve"/>
      <point x="30" y="-209" type="line"/>
      <point x="45" y="-216"/>
      <point x="64" y="-220"/>
    </contour>
  </outline>
</glyph>
<glyph name="exclamdown" format="2">
  <advance width="286"/>
  <unicode hex="00A1"/>
  <outline>
    <contour>
      <point x="107" y="-192" type="line"/>
      <point x="178" y="-192" type="line"/>
      <point x="177" y="-105" type="line"/>
      <point x="167" y="302" type="line"/>
      <point x="118" y="302" type="line"/>
      <point x="109" y="-105" type="line"/>
    </contour>
    <contour>
      <point x="143" y="396" type="curve" smooth="yes"/>
      <point x="172" y="396"/>
      <point x="197" y="419"/>
      <point x="197" y="455" type="curve" smooth="yes"/>
      <point x="197" y="489"/>
      <point x="172" y="512"/>
      <point x="143" y="512" type="curve" smooth="yes"/>
      <point x="113" y="512"/>
      <point x="88" y="489"/>
      <point x="88" y="455" type="curve" smooth="yes"/>
      <point x="88" y="419"/>
      <point x="113" y="396"/>
    </contour>
  </outline>
</glyph>
<glyph name="currency" format="2">
  <advance width="506"/>
  <unicode hex="00A4"/>
  <outline>
    <contour>
      <point x="67" y="110" type="line"/>
      <point x="135" y="181" type="line"/>
      <point x="168" y="154"/>
      <point x="209" y="139"/>
      <point x="253" y="139" type="curve" smooth="yes"/>
      <point x="295" y="139"/>
      <point x="337" y="154"/>
      <point x="369" y="181" type="curve"/>
      <point x="438" y="110" type="line"/>
      <point x="477" y="150" type="line"/>
      <point x="410" y="218" type="line"/>
      <point x="433" y="250"/>
      <point x="448" y="291"/>
      <point x="448" y="339" type="curve" smooth="yes"/>
      <point x="448" y="388"/>
      <point x="433" y="430"/>
      <point x="409" y="462" type="curve"/>
      <point x="477" y="531" type="line"/>
      <point x="438" y="570" type="line"/>
      <point x="369" y="499" type="line"/>
      <point x="336" y="525"/>
      <point x="295" y="540"/>
      <point x="253" y="540" type="curve" smooth="yes"/>
      <point x="209" y="540"/>
      <point x="168" y="525"/>
      <point x="136" y="499" type="curve"/>
      <point x="67" y="570" type="line"/>
      <point x="29" y="531" type="line"/>
      <point x="95" y="462" type="line"/>
      <point x="71" y="430"/>
      <point x="57" y="388"/>
      <point x="57" y="339" type="curve" smooth="yes"/>
      <point x="57" y="291"/>
      <point x="71" y="250"/>
      <point x="95" y="218" type="curve"/>
      <point x="29" y="150" type="line"/>
    </contour>
    <contour>
      <point x="253" y="193" type="curve" smooth="yes"/>
      <point x="182" y="193"/>
      <point x="123" y="252"/>
      <point x="123" y="339" type="curve" smooth="yes"/>
      <point x="123" y="426"/>
      <point x="182" y="487"/>
      <point x="253" y="487" type="curve" smooth="yes"/>
      <point x="323" y="487"/>
      <point x="382" y="426"/>
      <point x="382" y="339" type="curve" smooth="yes"/>
      <point x="382" y="252"/>
      <point x="323" y="193"/>
    </contour>
  </outline>
</glyph>
<glyph name="brokenbar" format="2">
  <advance width="242"/>
  <unicode hex="00A6"/>
  <outline>
    <contour>
      <point x="95" y="333" type="line"/>
      <point x="146" y="333" type="line"/>
      <point x="146" y="766" type="line"/>
      <point x="95" y="766" type="line"/>
    </contour>
    <contour>
      <point x="95" y="-173" type="line"/>
      <point x="146" y="-173" type="line"/>
      <point x="146" y="260" type="line"/>
      <point x="95" y="260" type="line"/>
    </contour>
  </outline>
</glyph>
<glyph name="micro" format="2">
  <advance width="572"/>
  <unicode hex="00B5"/>
  <outline>
    <contour>
      <point x="88" y="-184" type="line"/>
      <point x="158" y="-184" type="line"/>
      <point x="153" y="-104"/>
      <point x="153" y="-61"/>
      <point x="152" y="43" type="curve"/>
      <point x="177" y="-1"/>
      <point x="213" y="-10"/>
      <point x="257" y="-10" type="curve" smooth="yes"/>
      <point x="314" y="-10"/>
      <point x="364" y="20"/>
      <point x="403" y="88" type="curve"/>
      <point x="406" y="88" type="line"/>
      <point x="410" y="18"/>
      <point x="432" y="-12"/>
      <point x="486" y="-12" type="curve"/>
      <point x="510" y="-12"/>
      <point x="526" y="-7"/>
      <point x="540" y="-1" type="curve"/>
      <point x="530" y="52" type="line"/>
      <point x="518" y="48"/>
      <point x="509" y="46"/>
      <point x="500" y="46" type="curve" smooth="yes"/>
      <point x="479" y="46"/>
      <point x="465" y="58"/>
      <point x="465" y="85" type="curve" smooth="yes"/>
      <point x="465" y="214"/>
      <point x="468" y="360"/>
      <point x="470" y="499" type="curve"/>
      <point x="400" y="499" type="line"/>
      <point x="400" y="153" type="line"/>
      <point x="349" y="63"/>
      <point x="305" y="48"/>
      <point x="257" y="48" type="curve" smooth="yes"/>
      <point x="186" y="48"/>
      <point x="158" y="98"/>
      <point x="158" y="190" type="curve" smooth="yes"/>
      <point x="158" y="499" type="line"/>
      <point x="88" y="499" type="line"/>
    </contour>
  </outline>
</glyph>
<glyph name="questiondown" format="2">
  <advance width="429"/>
  <unicode hex="00BF"/>
  <outline>
    <contour>
      <point x="218" y="-204" type="curve" smooth="yes"/>
      <point x="291" y="-204"/>
      <point x="348" y="-168"/>
      <point x="390" y="-121" type="curve"/>
      <point x="350" y="-84" type="line"/>
      <point x="317" y="-123"/>
      <point x="273" y="-146"/>
      <point x="225" y="-146" type="curve" smooth="yes"/>
      <point x="153" y="-146"/>
      <point x="119" y="-96"/>
      <point x="119" y="-38" type="curve" smooth="yes"/>
      <point x="119" y="78"/>
      <point x="285" y="137"/>
      <point x="263" y="302" type="curve"/>
      <point x="201" y="302" type="line"/>
      <point x="219" y="153"/>
      <point x="50" y="94"/>
      <point x="50" y="-42" type="curve" smooth="yes"/>
      <point x="50" y="-139"/>
      <point x="115" y="-204"/>
    </contour>
    <contour>
      <point x="229" y="396" type="curve" smooth="yes"/>
      <point x="259" y="396"/>
      <point x="284" y="419"/>
      <point x="284" y="455" type="curve" smooth="yes"/>
      <point x="284" y="489"/>
      <point x="259" y="512"/>
      <point x="229" y="512" type="curve" smooth="yes"/>
      <point x="200" y="512"/>
      <point x="175" y="489"/>
      <point x="175" y="455" type="curve" smooth="yes"/>
      <point x="175" y="419"/>
      <point x="200" y="396"/>
    </contour>
  </outline>
</glyph>
<glyph name="AE" format="2">
  <advance width="844"/>
  <unicode hex="00C6"/>
  <anchor x="589" y="717" name="aboveUC"/>
  <outline>
    <contour>
      <point x="13" y="0" type="line"/>
      <point x="88" y="0" type="line"/>
      <point x="296" y="393" type="line"/>
      <point x="336" y="469"/>
      <point x="375" y="547"/>
      <point x="414" y="621" type="curve"/>
      <point x="418" y="621" type="line"/>
      <point x="418" y="0" type="line"/>
      <point x="794" y="0" type="line"/>
      <point x="794" y="60" type="line"/>
      <point x="489" y="60" type="line"/>
      <point x="489" y="328" type="line"/>
      <point x="734" y="328" type="line"/>
      <point x="734" y="388" type="line"/>
      <point x="489" y="388" type="line"/>
      <point x="489" y="619" type="line"/>
      <point x="784" y="619" type="line"/>
      <point x="784" y="679" type="line"/>
      <point x="377" y="679" type="line"/>
    </contour>
    <contour>
      <point x="167" y="208" type="line"/>
      <point x="463" y="208" type="line"/>
      <point x="463" y="265" type="line"/>
      <point x="167" y="265" type="line"/>
    </contour>
  </outline>
</glyph>
<glyph name="eth" format="2">
  <advance width="558"/>
  <unicode hex="00F0"/>
  <outline>
    <contour>
      <point x="277" y="-12" type="curve" smooth="yes"/>
      <point x="407" y="-12"/>
      <point x="494" y="97"/>
      <point x="494" y="263" type="curve" smooth="yes"/>
      <point x="494" y="531"/>
      <point x="342" y="664"/>
      <point x="179" y="751" type="curve"/>
      <point x="146" y="707" type="line"/>
      <point x="308" y="617"/>
      <point x="426" y="511"/>
      <point x="426" y="261" type="curve" smooth="yes"/>
      <point x="426" y="136"/>
      <point x="379" y="46"/>
      <point x="278" y="46" type="curve" smooth="yes"/>
      <point x="194" y="46"/>
      <point x="124" y="119"/>
      <point x="124" y="228" type="curve" smooth="yes"/>
      <point x="124" y="326"/>
      <point x="179" y="404"/>
      <point x="279" y="404" type="curve" smooth="yes"/>
      <point x="329" y="404"/>
      <point x="380" y="387"/>
      <point x="430" y="313" type="curve"/>
      <point x="429" y="366" type="line"/>
      <point x="392" y="429"/>
      <point x="333" y="459"/>
      <point x="270" y="459" type="curve" smooth="yes"/>
      <point x="147" y="459"/>
      <point x="57" y="367"/>
      <point x="57" y="228" type="curve" smooth="yes"/>
      <point x="57" y="78"/>
      <point x="163" y="-12"/>
    </contour>
    <contour>
      <point x="155" y="522" type="line"/>
      <point x="489" y="695" type="line"/>
      <point x="468" y="732" type="line"/>
      <point x="133" y="559" type="line"/>
    </contour>
  </outline>
</glyph>
<glyph name="OE" format="2">
  <advance width="869"/>
  <unicode hex="0152"/>
  <anchor x="550" y="702" name="aboveUC"/>
  <outline>
    <contour>
      <point x="380" y="0" type="curve" smooth="yes"/>
      <point x="819" y="0" type="line"/>
      <point x="819" y="60" type="line"/>
      <point x="515" y="60" type="line"/>
      <point x="515" y="328" type="line"/>
      <point x="760" y="328" type="line"/>
      <point x="760" y="388" type="line"/>
      <point x="515" y="388" type="line"/>
      <point x="515" y="619" type="line"/>
      <point x="809" y="619" type="line"/>
      <point x="809" y="679" type="line"/>
      <point x="383" y="679" type="line" smooth="yes"/>
      <point x="171" y="679"/>
      <point x="54" y="553"/>
      <point x="54" y="341" type="curve" smooth="yes"/>
      <point x="54" y="130"/>
      <point x="171" y="0"/>
    </contour>
    <contour>
      <point x="388" y="58" type="line" smooth="yes"/>
      <point x="214" y="58"/>
      <point x="128" y="167"/>
      <point x="128" y="341" type="curve" smooth="yes"/>
      <point x="128" y="516"/>
      <point x="214" y="620"/>
      <point x="388" y="620" type="curve" smooth="yes"/>
      <point x="444" y="620" type="line"/>
      <point x="444" y="58" type="line"/>
    </contour>
  </outline>
</glyph>
<glyph name="ogonek" format="2">
  <advance width="557"/>
  <unicode hex="02DB"/>
  <outline>
    <contour>
      <point x="304" y="-211" type="curve" smooth="yes"/>
      <point x="328" y="-211"/>
      <point x="361" y="-200"/>
      <point x="379" y="-184" type="curve"/>
      <point x="359" y="-149" type="line"/>
      <point x="347" y="-158"/>
      <point x="334" y="-163"/>
      <point x="317" y="-163" type="curve" smooth="yes"/>
      <point x="291" y="-163"/>
      <point x="269" y="-146"/>
      <point x="269" y="-112" type="curve" smooth="yes"/>
      <point x="269" y="-71"/>
      <point x="296" y="-29"/>
      <point x="342" y="3" type="curve"/>
      <point x="288" y="3" type="line"/>
      <point x="253" y="-23"/>
      <point x="215" y="-70"/>
      <point x="215" y="-124" type="curve" smooth="yes"/>
      <point x="215" y="-182"/>
      <point x="254" y="-211"/>
    </contour>
  </outline>
</glyph>
<glyph name="pi" format="2">
  <advance width="593"/>
  <unicode hex="03C0"/>
  <outline>
    <contour>
      <point x="491" y="-12" type="curve" smooth="yes"/>
      <point x="519" y="-12"/>
      <point x="538" y="-7"/>
      <point x="555" y="-1" type="curve"/>
      <point x="545" y="51" type="line"/>
      <point x="526" y="48"/>
      <point x="513" y="46"/>
      <point x="504" y="46" type="curve" smooth="yes"/>
      <point x="472" y="46"/>
      <point x="457" y="61"/>
      <point x="457" y="96" type="curve" smooth="yes"/>
      <point x="457" y="150"/>
      <point x="459" y="321"/>
      <point x="465" y="440" type="curve"/>
      <point x="567" y="440" type="line"/>
      <point x="567" y="499" type="line"/>
      <point x="95" y="499" type="line"/>
      <point x="24" y="495" type="line"/>
      <point x="24" y="440" type="line"/>
      <point x="141" y="440" type="line"/>
      <point x="141" y="300"/>
      <point x="127" y="142"/>
      <point x="105" y="0" type="curve"/>
      <point x="176" y="-4" type="line"/>
      <point x="190" y="137"/>
      <point x="206" y="296"/>
      <point x="206" y="440" type="curve"/>
      <point x="398" y="440" type="line"/>
      <point x="396" y="325"/>
      <point x="392" y="158"/>
      <point x="392" y="102" type="curve" smooth="yes"/>
      <point x="392" y="26"/>
      <point x="421" y="-12"/>
    </contour>
  </outline>
</glyph>
<glyph name="quoteleft" format="2">
  <advance width="266"/>
  <unicode hex="2018"/>
  <note>
quoteleft
</note>
  <outline>
    <contour>
      <point x="77" y="616" type="line"/>
      <point x="77" y="516" type="line"/>
      <point x="177" y="516" type="line"/>
      <point x="177" y="624" type="line"/>
      <point x="141" y="624" type="line"/>
      <point x="185" y="758" type="line"/>
      <point x="143" y="774" type="line"/>
    </contour>
  </outline>
</glyph>
<glyph name="quotedblleft" format="2">
  <advance width="416"/>
  <unicode hex="201C"/>
  <note>
quotedblleft
</note>
  <outline>
    <contour>
      <point x="77" y="616" type="line"/>
      <point x="77" y="516" type="line"/>
      <point x="176" y="516" type="line"/>
      <point x="176" y="624" type="line"/>
      <point x="140" y="624" type="line"/>
      <point x="184" y="758" type="line"/>
      <point x="143" y="774" type="line"/>
    </contour>
    <contour>
      <point x="228" y="616" type="line"/>
      <point x="228" y="516" type="line"/>
      <point x="327" y="516" type="line"/>
      <point x="327" y="624" type="line"/>
      <point x="291" y="624" type="line"/>
      <point x="335" y="758" type="line"/>
      <point x="294" y="774" type="line"/>
    </contour>
  </outline>
</glyph>
<glyph name="quotedblright" format="2">
  <advance width="416"/>
  <unicode hex="201D"/>
  <note>
quotedblright
</note>
  <outline>
    <contour>
      <point x="81" y="522" type="line"/>
      <point x="122" y="506" type="line"/>
      <point x="188" y="664" type="line"/>
      <point x="188" y="764" type="line"/>
      <point x="89" y="764" type="line"/>
      <point x="89" y="656" type="line"/>
      <point x="125" y="656" type="line"/>
    </contour>
    <contour>
      <point x="232" y="522" type="line"/>
      <point x="273" y="506" type="line"/>
      <point x="339" y="664" type="line"/>
      <point x="339" y="764" type="line"/>
      <point x="240" y="764" type="line"/>
      <point x="240" y="656" type="line"/>
      <point x="276" y="656" type="line"/>
    </contour>
  </outline>
</glyph>
<glyph name="Ohm" format="2">
  <advance width="693"/>
  <unicode hex="2126"/>
  <outline>
    <contour>
      <point x="46" y="0" type="line"/>
      <point x="279" y="0" type="line"/>
      <point x="279" y="51" type="line"/>
      <point x="199" y="111"/>
      <point x="133" y="207"/>
      <point x="133" y="357" type="curve" smooth="yes"/>
      <point x="133" y="512"/>
      <point x="212" y="628"/>
      <point x="346" y="628" type="curve" smooth="yes"/>
      <point x="480" y="628"/>
      <point x="559" y="512"/>
      <point x="559" y="357" type="curve" smooth="yes"/>
      <point x="559" y="207"/>
      <point x="493" y="111"/>
      <point x="413" y="51" type="curve"/>
      <point x="413" y="0" type="line"/>
      <point x="646" y="0" type="line"/>
      <point x="646" y="58" type="line"/>
      <point x="505" y="58" type="line"/>
      <point x="505" y="62" type="line"/>
      <point x="567" y="122"/>
      <point x="632" y="218"/>
      <point x="632" y="361" type="curve" smooth="yes"/>
      <point x="632" y="551"/>
      <point x="520" y="691"/>
      <point x="346" y="691" type="curve" smooth="yes"/>
      <point x="172" y="691"/>
      <point x="60" y="551"/>
      <point x="60" y="361" type="curve" smooth="yes"/>
      <point x="60" y="218"/>
      <point x="125" y="122"/>
      <point x="187" y="62" type="curve"/>
      <point x="187" y="58" type="line"/>
      <point x="46" y="58" type="line"/>
    </contour>
  </outline>
</glyph>
<glyph name="radical" format="2">
  <advance width="568"/>
  <unicode hex="221A"/>
  <outline>
    <contour>
      <point x="291" y="-102" type="line"/>
      <point x="347" y="-102" type="line"/>
      <point x="571" y="847" type="line"/>
      <point x="518" y="847" type="line"/>
      <point x="330" y="39" type="line"/>
      <point x="325" y="19"/>
      <point x="322" y="-1"/>
      <point x="318" y="-21" type="curve"/>
      <point x="313" y="-21" type="line"/>
      <point x="309" y="-1"/>
      <point x="304" y="19"/>
      <point x="297" y="39" type="curve"/>
      <point x="173" y="409" type="line"/>
      <point x="45" y="352" type="line"/>
      <point x="63" y="311" type="line"/>
      <point x="136" y="344" type="line"/>
    </contour>
  </outline>
</glyph>
<glyph name="sidebearingleft" format="2">
  <advance width="166"/>
  <unicode hex="F130"/>
  <outline>
    <contour>
      <point x="21" y="0" type="line"/>
      <point x="21" y="-19" type="line"/>
      <point x="146" y="-19" type="line"/>
      <point x="146" y="-144" type="line"/>
      <point x="166" y="-144" type="line"/>
      <point x="166" y="0" type="line"/>
    </contour>
  </outline>
</glyph>
<glyph name="_ringcomb.cap" format="2">
  <anchor x="0" y="702" name="_aboveUC"/>
  <outline>
    <contour>
      <point x="0" y="722" type="curve" smooth="yes"/>
      <point x="53" y="722"/>
      <point x="96" y="759"/>
      <point x="96" y="813" type="curve" smooth="yes"/>
      <point x="96" y="869"/>
      <point x="53" y="905"/>
      <point x="0" y="905" type="curve" smooth="yes"/>
      <point x="-55" y="905"/>
      <point x="-96" y="869"/>
      <point x="-96" y="813" type="curve" smooth="yes"/>
      <point x="-96" y="759"/>
      <point x="-55" y="722"/>
    </contour>
    <contour>
      <point x="0" y="755" type="curve" smooth="yes"/>
      <point x="-30" y="755"/>
      <point x="-56" y="776"/>
      <point x="-56" y="813" type="curve" smooth="yes"/>
      <point x="-56" y="850"/>
      <point x="-30" y="872"/>
      <point x="0" y="872" type="curve" smooth="yes"/>
      <point x="29" y="872"/>
      <point x="54" y="850"/>
      <point x="54" y="813" type="curve" smooth="yes"/>
      <point x="54" y="776"/>
      <point x="29" y="755"/>
    </contour>
  </outline>
</glyph>
<glyph name="brevecmb" format="2">
  <anchor x="0" y="524" name="_aboveLC"/>
  <outline>
    <contour>
      <point x="0" y="589" type="curve" smooth="yes"/>
      <point x="108" y="589"/>
      <point x="151" y="671"/>
      <point x="158" y="744" type="curve"/>
      <point x="112" y="751" type="line"/>
      <point x="104" y="696"/>
      <point x="70" y="637"/>
      <point x="0" y="637" type="curve" smooth="yes"/>
      <point x="-70" y="637"/>
      <point x="-104" y="696"/>
      <point x="-112" y="751" type="curve"/>
      <point x="-158" y="744" type="line"/>
      <point x="-151" y="671"/>
      <point x="-108" y="589"/>
    </contour>
  </outline>
</glyph>
<glyph name="dotaccentcmb" format="2">
  <anchor x="0" y="524" name="_aboveLC"/>
  <anchor x="0" y="711" name="aboveLC"/>
  <outline>
    <contour>
      <point x="0" y="609" type="curve" smooth="yes"/>
      <point x="28" y="609"/>
      <point x="49" y="630"/>
      <point x="49" y="660" type="curve" smooth="yes"/>
      <point x="49" y="689"/>
      <point x="28" y="709"/>
      <point x="0" y="709" type="curve" smooth="yes"/>
      <point x="-28" y="709"/>
      <point x="-49" y="689"/>
      <point x="-49" y="660" type="curve" smooth="yes"/>
      <point x="-49" y="630"/>
      <point x="-28" y="609"/>
    </contour>
  </outline>
</glyph>
<glyph name="four.dnom" format="2">
  <advance width="377"/>
  <outline>
    <contour>
      <point x="228" y="0" type="line"/>
      <point x="279" y="0" type="line"/>
      <point x="279" y="402" type="line"/>
      <point x="219" y="402" type="line"/>
      <point x="45" y="140" type="line"/>
      <point x="45" y="111" type="line"/>
      <point x="339" y="111" type="line"/>
      <point x="339" y="153" type="line"/>
      <point x="106" y="153" type="line"/>
      <point x="174" y="258" type="line"/>
      <point x="228" y="343" type="line"/>
      <point x="232" y="343" type="line"/>
      <point x="228" y="232" type="line"/>
    </contour>
  </outline>
</glyph>
<glyph name="hungarumlautcmb" format="2">
  <anchor x="0" y="524" name="_aboveLC"/>
  <outline>
    <contour>
      <point x="-52" y="587" type="line"/>
      <point x="48" y="756" type="line"/>
      <point x="-2" y="782" type="line"/>
      <point x="-91" y="605" type="line"/>
    </contour>
    <contour>
      <point x="96" y="587" type="line"/>
      <point x="197" y="756" type="line"/>
      <point x="146" y="782" type="line"/>
      <point x="57" y="605" type="line"/>
    </contour>
  </outline>
</glyph>
<glyph name="macroncmb" format="2">
  <anchor x="0" y="524" name="_aboveLC"/>
  <outline>
    <contour>
      <point x="-133" y="622" type="line"/>
      <point x="133" y="622" type="line"/>
      <point x="133" y="673" type="line"/>
      <point x="-133" y="673" type="line"/>
    </contour>
  </outline>
</glyph>
<glyph name="o.sups" format="2">
  <advance width="374"/>
  <outline>
    <contour>
      <point x="186" y="404" type="curve" smooth="yes"/>
      <point x="270" y="404"/>
      <point x="341" y="468"/>
      <point x="341" y="577" type="curve" smooth="yes"/>
      <point x="341" y="688"/>
      <point x="270" y="751"/>
      <point x="186" y="751" type="curve" smooth="yes"/>
      <point x="102" y="751"/>
      <point x="31" y="688"/>
      <point x="31" y="577" type="curve" smooth="yes"/>
      <point x="31" y="468"/>
      <point x="102" y="404"/>
    </contour>
    <contour>
      <point x="186" y="449" type="curve" smooth="yes"/>
      <point x="125" y="449"/>
      <point x="87" y="501"/>
      <point x="87" y="577" type="curve" smooth="yes"/>
      <point x="87" y="654"/>
      <point x="125" y="706"/>
      <point x="186" y="706" type="curve" smooth="yes"/>
      <point x="247" y="706"/>
      <point x="285" y="654"/>
      <point x="285" y="577" type="curve" smooth="yes"/>
      <point x="285" y="501"/>
      <point x="247" y="449"/>
    </contour>
  </outline>
</glyph>
<glyph name="ogonekcmb" format="2">
  <outline>
    <contour>
      <point x="26" y="-211" type="curve" smooth="yes"/>
      <point x="50" y="-211"/>
      <point x="83" y="-200"/>
      <point x="101" y="-184" type="curve"/>
      <point x="81" y="-149" type="line"/>
      <point x="69" y="-158"/>
      <point x="56" y="-163"/>
      <point x="39" y="-163" type="curve" smooth="yes"/>
      <point x="13" y="-163"/>
      <point x="-9" y="-146"/>
      <point x="-9" y="-112" type="curve" smooth="yes"/>
      <point x="-9" y="-71"/>
      <point x="18" y="-29"/>
      <point x="64" y="3" type="curve"/>
      <point x="10" y="3" type="line"/>
      <point x="-25" y="-23"/>
      <point x="-63" y="-70"/>
      <point x="-63" y="-124" type="curve" smooth="yes"/>
      <point x="-63" y="-182"/>
      <point x="-24" y="-211"/>
    </contour>
  </outline>
</glyph>
<glyph name="one.dnom" format="2">
  <advance width="377"/>
  <outline>
    <contour>
      <point x="179" y="0" type="line"/>
      <point x="234" y="0" type="line"/>
      <point x="234" y="402" type="line"/>
      <point x="188" y="402" type="line"/>
      <point x="162" y="382"/>
      <point x="135" y="370"/>
      <point x="92" y="362" type="curve"/>
      <point x="92" y="324" type="line"/>
      <point x="179" y="324" type="line"/>
    </contour>
  </outline>
</glyph>
<glyph name="period.copy1" format="2">
  <advance width="245"/>
  <outline>
    <contour>
      <point x="122" y="-12" type="curve" smooth="yes"/>
      <point x="151" y="-12"/>
      <point x="177" y="10"/>
      <point x="177" y="44" type="curve" smooth="yes"/>
      <point x="177" y="80"/>
      <point x="151" y="103"/>
      <point x="122" y="103" type="curve" smooth="yes"/>
      <point x="93" y="103"/>
      <point x="68" y="80"/>
      <point x="68" y="44" type="curve" smooth="yes"/>
      <point x="68" y="10"/>
      <point x="93" y="-12"/>
    </contour>
  </outline>
</glyph>
<glyph name="two.dnom" format="2">
  <advance width="377"/>
  <outline>
    <contour>
      <point x="55" y="0" type="line"/>
      <point x="326" y="0" type="line"/>
      <point x="326" y="47" type="line"/>
      <point x="145" y="47" type="line"/>
      <point x="238" y="141"/>
      <point x="305" y="206"/>
      <point x="305" y="286" type="curve" smooth="yes"/>
      <point x="305" y="371"/>
      <point x="252" y="415"/>
      <point x="174" y="415" type="curve" smooth="yes"/>
      <point x="121" y="415"/>
      <point x="72" y="382"/>
      <point x="44" y="338" type="curve"/>
      <point x="78" y="307" type="line"/>
      <point x="100" y="340"/>
      <point x="132" y="368"/>
      <point x="167" y="368" type="curve" smooth="yes"/>
      <point x="217" y="368"/>
      <point x="250" y="333"/>
      <point x="250" y="278" type="curve" smooth="yes"/>
      <point x="250" y="214"/>
      <point x="185" y="151"/>
      <point x="55" y="33" type="curve"/>
    </contour>
  </outline>
</glyph>
